<?xml version="1.0" encoding="UTF-8"?>
<svg id="Layer_1" data-name="Layer 1" xmlns="http://www.w3.org/2000/svg" version="1.1" viewBox="0 0 81.6 81.3">
  <defs>
    <style>
      .cls-1 {
        fill: #000;
        stroke-width: 0px;
      }
    </style>
  </defs>
  <path class="cls-1" d="M81.5,2.7v-.6l-.2-.4-.2-.3-.4-.5h0l-.7-.5-.3-.2L79.4,0h-20.6C56.8,0,55.2,1.6,55.2,3.6s1.6,3.6,3.6,3.6h10.7l-31.9,31.6c-1.4,1.4-1.4,3.7,0,5.1s3.7,1.4,5.1,0h0l31.9-31.9v10.7c0,2,1.6,3.6,3.6,3.6s3.6-1.6,3.6-3.6V3.3h0c0-.2,0-.4,0-.6Z"/>
  <path class="cls-1" d="M19.7,72.3h42.1c5.9,0,10.7-4.8,10.7-10.7v-25.1c0-2-1.6-3.6-3.6-3.6s-3.6,1.6-3.6,3.6v25.1c0,2-1.6,3.6-3.6,3.6H19.7c-2,0-3.6-1.6-3.6-3.6V19.5c0-2,1.6-3.6,3.6-3.6h25.1c2,0,3.6-1.6,3.6-3.6s-1.6-3.6-3.6-3.6h-25.1c-5.9,0-10.7,4.8-10.7,10.7v42.1c0,5.9,4.8,10.7,10.7,10.7Z"/>
</svg>